[h264 @ 0x55a9a4ffad00] Reinit context to 1088x1920, pix_fmt: yuv420p
Input #0, mov,mp4,m4a,3gp,3g2,mj2, from '/var/www/html/project/media/video/original/lv_0_20250910214445.mp4':
  Metadata:
    major_brand     : isom
    minor_version   : 512
    compatible_brands: isomiso2avc1mp41
    Hw              : 1
    LvMetaInfo      : {"data":{"adsTemplateId":"","appVersion":"15.1.0","businessComponentId":"","businessTemplateId":"","capabilityName":"","commercial_params":{},"draftInfo":{},"editSource":"","editType":"edit","enterFrom":"new","exportType":"export","extendTemplateId":"","e
    aigc_info       : {"aigc_label_type":0,"source_info":""}
    bitrate         : 12000000
    maxrate         : 30000000
    te_is_reencode  : 1
    encoder         : bytevehwavc
  Duration: 00:00:36.11, start: 0.000000, bitrate: 9683 kb/s
    Stream #0:0(und): Video: h264 (High), 1 reference frame (avc1 / 0x31637661), yuv420p(tv, bt709, left), 1078x1920 (1088x1920), 9594 kb/s, 30 fps, 30 tbr, 1000k tbn, 2000k tbc (default)
    Metadata:
      handler_name    : VideoHandler
    Stream #0:1(und): Audio: aac (LC) (mp4a / 0x6134706D), 44100 Hz, stereo, fltp, 94 kb/s (default)
    Metadata:
      handler_name    : SoundHandler
Input #1, png_pipe, from '/var/www/html/project/static/images/templates/logo_vertical.png':
  Duration: N/A, bitrate: N/A
    Stream #1:0: Video: png, 1 reference frame, rgba(pc), 1920x1080 [SAR 2835:2835 DAR 16:9], 25 tbr, 25 tbn, 25 tbc
[h264 @ 0x55a9a500dd40] Reinit context to 1280x720, pix_fmt: yuv420p
Input #2, mov,mp4,m4a,3gp,3g2,mj2, from '/var/www/html/project/static/images/templates/Codino.mp4':
  Metadata:
    major_brand     : mp42
    minor_version   : 1
    compatible_brands: isommp41mp42
    creation_time   : 2021-07-11T07:02:58.000000Z
  Duration: 00:00:02.00, start: 0.000000, bitrate: 1007 kb/s
    Stream #2:0(ita): Audio: aac (LC) (mp4a / 0x6134706D), 44100 Hz, stereo, fltp, 102 kb/s (default)
    Metadata:
      creation_time   : 2021-07-11T07:02:58.000000Z
      handler_name    : Core Media Audio
    Stream #2:1(und): Video: h264 (High), 1 reference frame (avc1 / 0x31637661), yuv420p(tv, bt709, progressive, left), 1280x720 [SAR 1:1 DAR 16:9], 813 kb/s, 25 fps, 25 tbr, 25k tbn, 50k tbc (default)
    Metadata:
      creation_time   : 2021-07-11T07:02:58.000000Z
      handler_name    : Core Media Video
[Parsed_scale_1 @ 0x55a9a5049480] w:1280 h:720 flags:'bilinear' interl:0
[Parsed_scale_4 @ 0x55a9a50f7f80] w:-1 h:720 flags:'bilinear' interl:0
[Parsed_scale_7 @ 0x55a9a504ef80] w:1280 h:720 flags:'bilinear' interl:0
[Parsed_scale_9 @ 0x55a9a5117280] w:1280 h:720 flags:'bilinear' interl:0
Stream mapping:
  Stream #0:0 (h264) -> split
  Stream #0:1 (aac) -> concat:in0:a0
  Stream #1:0 (png) -> scale
  Stream #2:0 (aac) -> concat:in1:a0
  Stream #2:1 (h264) -> scale
  concat:out:v0 -> Stream #0:0 (libx264)
  concat:out:a0 -> Stream #0:1 (aac)
Press [q] to stop, [?] for help
[h264 @ 0x55a9a5116f40] Reinit context to 1088x1920, pix_fmt: yuv420p
[h264 @ 0x55a9a54ae0c0] Reinit context to 1280x720, pix_fmt: yuv420p
[Parsed_scale_1 @ 0x55a9a695a240] w:1280 h:720 flags:'bilinear' interl:0
[Parsed_scale_4 @ 0x55a9a6965100] w:-1 h:720 flags:'bilinear' interl:0
[Parsed_scale_7 @ 0x55a9a6967980] w:1280 h:720 flags:'bilinear' interl:0
[Parsed_scale_9 @ 0x55a9a6969140] w:1280 h:720 flags:'bilinear' interl:0
[graph 0 input from stream 0:0 @ 0x55a9a696d940] w:1078 h:1920 pixfmt:yuv420p tb:1/1000000 fr:30/1 sar:0/1 sws_param:flags=2
[graph 0 input from stream 1:0 @ 0x55a9a696e9c0] w:1920 h:1080 pixfmt:rgba tb:1/25 fr:25/1 sar:2835/2835 sws_param:flags=2
[graph 0 input from stream 2:1 @ 0x55a9a6964400] w:1280 h:720 pixfmt:yuv420p tb:1/25000 fr:25/1 sar:1/1 sws_param:flags=2
[graph_0_in_0_1 @ 0x55a9a696ee00] tb:1/44100 samplefmt:fltp samplerate:44100 chlayout:0x3
[graph_0_in_2_0 @ 0x55a9a696bbc0] tb:1/44100 samplefmt:fltp samplerate:44100 chlayout:0x3
[Parsed_scale_1 @ 0x55a9a695a240] w:1078 h:1920 fmt:yuv420p sar:0/1 -> w:1280 h:720 fmt:yuv420p sar:0/1 flags:0x2
[Parsed_boxblur_2 @ 0x55a9a5112e80] luma_radius:36 luma_power:1 chroma_radius:18 chroma_power:1 alpha_radius:36 alpha_power:1 w:1280 chroma_w:640 h:720 chroma_h:360
[Parsed_setsar_3 @ 0x55a9a69646c0] w:1280 h:720 sar:0/1 dar:16/9 -> sar:1/1 dar:16/9
[Parsed_scale_4 @ 0x55a9a6965100] w:1078 h:1920 fmt:yuv420p sar:0/1 -> w:404 h:720 fmt:yuva420p sar:0/1 flags:0x2
[Parsed_setsar_5 @ 0x55a9a69654c0] w:404 h:720 sar:0/1 dar:101/180 -> sar:1/1 dar:101/180
[Parsed_overlay_6 @ 0x55a9a6966740] main w:1280 h:720 fmt:yuv420p overlay w:404 h:720 fmt:yuva420p
[Parsed_overlay_6 @ 0x55a9a6966740] [framesync @ 0x55a9a6966d68] Selected 1/1000000 time base
[Parsed_overlay_6 @ 0x55a9a6966740] [framesync @ 0x55a9a6966d68] Sync level 2
[Parsed_scale_7 @ 0x55a9a6967980] w:1920 h:1080 fmt:rgba sar:2835/2835 -> w:1280 h:720 fmt:yuva420p sar:1/1 flags:0x2
[Parsed_setsar_8 @ 0x55a9a6968440] w:1280 h:720 sar:1/1 dar:16/9 -> sar:1/1 dar:16/9
[Parsed_overlay_11 @ 0x55a9a696a7c0] main w:1280 h:720 fmt:yuv420p overlay w:1280 h:720 fmt:yuva420p
[Parsed_overlay_11 @ 0x55a9a696a7c0] [framesync @ 0x55a9a696a928] Selected 1/1000000 time base
[Parsed_overlay_11 @ 0x55a9a696a7c0] [framesync @ 0x55a9a696a928] Sync level 2
[Parsed_scale_9 @ 0x55a9a6969140] w:1280 h:720 fmt:yuv420p sar:1/1 -> w:1280 h:720 fmt:yuv420p sar:1/1 flags:0x2
[Parsed_setsar_10 @ 0x55a9a6969c40] w:1280 h:720 sar:1/1 dar:16/9 -> sar:1/1 dar:16/9
[libx264 @ 0x55a9a5102e80] using SAR=1/1
[libx264 @ 0x55a9a5102e80] using cpu capabilities: MMX2 SSE2Fast SSSE3 SSE4.2 AVX FMA3 BMI2 AVX2
[libx264 @ 0x55a9a5102e80] profile High, level 3.1
[libx264 @ 0x55a9a5102e80] 264 - core 155 r2917 0a84d98 - H.264/MPEG-4 AVC codec - Copyleft 2003-2018 - http://www.videolan.org/x264.html - options: cabac=1 ref=1 deblock=1:0:0 analyse=0x3:0x113 me=hex subme=2 psy=1 psy_rd=1.00:0.00 mixed_ref=0 me_range=16 chroma_me=1 trellis=0 8x8dct=1 cqm=0 deadzone=21,11 fast_pskip=1 chroma_qp_offset=0 threads=22 lookahead_threads=5 sliced_threads=0 nr=0 decimate=1 interlaced=0 bluray_compat=0 constrained_intra=0 bframes=3 b_pyramid=2 b_adapt=1 b_bias=0 direct=1 weightb=1 open_gop=0 weightp=1 keyint=250 keyint_min=25 scenecut=40 intra_refresh=0 rc_lookahead=10 rc=crf mbtree=1 crf=18.0 qcomp=0.60 qpmin=0 qpmax=69 qpstep=4 ip_ratio=1.40 aq=1:1.00
Output #0, mp4, to '/var/www/html/project/media/video/watermarks/lv_0_20250910214445.mp4':
  Metadata:
    major_brand     : isom
    minor_version   : 512
    compatible_brands: isomiso2avc1mp41
    Hw              : 1
    LvMetaInfo      : {"data":{"adsTemplateId":"","appVersion":"15.1.0","businessComponentId":"","businessTemplateId":"","capabilityName":"","commercial_params":{},"draftInfo":{},"editSource":"","editType":"edit","enterFrom":"new","exportType":"export","extendTemplateId":"","e
    aigc_info       : {"aigc_label_type":0,"source_info":""}
    bitrate         : 12000000
    maxrate         : 30000000
    te_is_reencode  : 1
    encoder         : Lavf58.29.100
    Stream #0:0: Video: h264 (libx264), 1 reference frame (avc1 / 0x31637661), yuv420p(progressive), 1280x720 [SAR 1:1 DAR 16:9], q=-1--1, 30 fps, 15360 tbn, 30 tbc (default)
    Metadata:
      encoder         : Lavc58.54.100 libx264
    Side data:
      cpb: bitrate max/min/avg: 0/0/0 buffer size: 0 vbv_delay: -1
    Stream #0:1: Audio: aac (LC) (mp4a / 0x6134706D), 44100 Hz, stereo, fltp, delay 1024, 128 kb/s (default)
    Metadata:
      encoder         : Lavc58.54.100 aac
[Parsed_overlay_6 @ 0x55a9a6966740] [framesync @ 0x55a9a6966d68] Sync level 1
[Parsed_overlay_6 @ 0x55a9a6966740] [framesync @ 0x55a9a6966d68] Sync level 0
[Parsed_overlay_11 @ 0x55a9a696a7c0] [framesync @ 0x55a9a696a928] Sync level 0
[Parsed_concat_12 @ 0x55a9a696b980] EOF on in0:v0, 1 streams left in segment.
[Parsed_concat_12 @ 0x55a9a696b980] EOF on in0:a0, 0 streams left in segment.
[Parsed_concat_12 @ 0x55a9a696b980] Segment finished at pts=36066666
[Parsed_concat_12 @ 0x55a9a696b980] EOF on in1:a0, 1 streams left in segment.
[Parsed_concat_12 @ 0x55a9a696b980] EOF on in1:v0, 0 streams left in segment.
[Parsed_concat_12 @ 0x55a9a696b980] Segment finished at pts=38085351
No more output streams to write to, finishing.
frame= 1132 fps= 25 q=-1.0 Lsize=   23667kB time=00:00:38.10 bitrate=5088.2kbits/s speed=0.829x    
[AVIOContext @ 0x55a9a4ff8f80] Statistics: 0 seeks, 89 writeouts
video:23036kB audio:589kB subtitle:0kB other streams:0kB global headers:0kB muxing overhead: 0.175562%
Input file #0 (/var/www/html/project/media/video/original/lv_0_20250910214445.mp4):
  Input stream #0:0 (video): 1082 packets read (43254072 bytes); 1082 frames decoded; 
  Input stream #0:1 (audio): 1555 packets read (424876 bytes); 1553 frames decoded (1590272 samples); 
  Total: 2637 packets (43678948 bytes) demuxed
Input file #1 (/var/www/html/project/static/images/templates/logo_vertical.png):
  Input stream #1:0 (video): 1 packets read (93903 bytes); 1 frames decoded; 
  Total: 1 packets (93903 bytes) demuxed
Input file #2 (/var/www/html/project/static/images/templates/Codino.mp4):
  Input stream #2:0 (audio): 89 packets read (26579 bytes); 87 frames decoded (89024 samples); 
  Input stream #2:1 (video): 50 packets read (203365 bytes); 50 frames decoded; 
  Total: 139 packets (229944 bytes) demuxed
Output file #0 (/var/www/html/project/media/video/watermarks/lv_0_20250910214445.mp4):
  Output stream #0:0 (video): 1132 frames encoded; 1132 packets muxed (23589058 bytes); 
  Output stream #0:1 (audio): 1641 frames encoded (1679561 samples); 1642 packets muxed (603527 bytes); 
  Total: 2774 packets (24192585 bytes) muxed
[AVIOContext @ 0x55a9a504eb40] Statistics: 2 seeks, 96 writeouts
[libx264 @ 0x55a9a5102e80] frame I:8     Avg QP:15.07  size: 43613
[libx264 @ 0x55a9a5102e80] frame P:307   Avg QP:18.69  size: 31395
[libx264 @ 0x55a9a5102e80] frame B:817   Avg QP:20.18  size: 16648
[libx264 @ 0x55a9a5102e80] consecutive B-frames:  2.7%  2.5%  1.9% 92.9%
[libx264 @ 0x55a9a5102e80] mb I  I16..4: 32.1% 39.2% 28.7%
[libx264 @ 0x55a9a5102e80] mb P  I16..4: 19.6% 33.6% 11.5%  P16..4: 10.2%  7.9%  6.0%  0.0%  0.0%    skip:11.3%
[libx264 @ 0x55a9a5102e80] mb B  I16..4:  7.6%  9.2%  1.7%  B16..8: 25.1% 14.9%  4.1%  direct: 9.5%  skip:28.0%  L0:44.5% L1:44.4% BI:11.1%
[libx264 @ 0x55a9a5102e80] 8x8 transform intra:50.7% inter:20.7%
[libx264 @ 0x55a9a5102e80] coded y,uvDC,uvAC intra: 41.1% 49.2% 7.6% inter: 17.0% 29.1% 1.8%
[libx264 @ 0x55a9a5102e80] i16 v,h,dc,p: 22% 30%  9% 39%
[libx264 @ 0x55a9a5102e80] i8 v,h,dc,ddl,ddr,vr,hd,vl,hu: 14% 41% 15%  4%  6%  4%  8%  4%  5%
[libx264 @ 0x55a9a5102e80] i4 v,h,dc,ddl,ddr,vr,hd,vl,hu: 22% 22% 12%  6%  8%  8%  8%  6%  8%
[libx264 @ 0x55a9a5102e80] i8c dc,h,v,p: 45% 28% 13% 13%
[libx264 @ 0x55a9a5102e80] Weighted P-Frames: Y:2.0% UV:0.0%
[libx264 @ 0x55a9a5102e80] kb/s:4957.28
[aac @ 0x55a9a50f8680] Qavg: 1514.494
[AVIOContext @ 0x55a9a5001f40] Statistics: 68059632 bytes read, 1470 seeks
[AVIOContext @ 0x55a9a5001180] Statistics: 93903 bytes read, 0 seeks
[AVIOContext @ 0x55a9a4ffec00] Statistics: 1530915 bytes read, 42 seeks
